<svg xmlns="http://www.w3.org/2000/svg" width="1.25em" height="1.25em" viewBox="0 0 90 90" fill="currentColor" focusable="false" aria-hidden="true">
  <path d="M 45 0 C 20.187 0 0 20.187 0 45 c 0 24.813 20.187 45 45 45 c 24.813 0 45 -20.187 45 -45 C 90 20.187 69.813 0 45 0 z M 2.025 46 h 18.497 c 0.084 7.044 1.052 13.691 2.71 19.586 H 7.259 C 4.059 59.743 2.188 53.079 2.025 46 z M 46 22.414 V 2.048 c 7.654 0.644 14.324 8.634 18.128 20.366 H 46 z M 64.741 24.414 c 1.674 5.842 2.652 12.506 2.737 19.586 H 46 V 24.414 H 64.741 z M 44 22.414 H 25.872 C 29.676 10.682 36.346 2.692 44 2.048 V 22.414 z M 44 24.414 V 44 H 22.522 c 0.085 -7.079 1.064 -13.743 2.737 -19.586 H 44 z M 20.522 44 H 2.025 c 0.163 -7.079 2.034 -13.743 5.233 -19.586 h 15.974 C 21.574 30.309 20.606 36.956 20.522 44 z M 22.522 46 H 44 v 19.586 H 25.259 C 23.585 59.743 22.607 53.079 22.522 46 z M 44 67.586 v 20.366 c -7.654 -0.644 -14.324 -8.634 -18.128 -20.366 H 44 z M 46 67.586 h 18.128 C 60.324 79.318 53.654 87.308 46 87.952 V 67.586 z M 46 65.586 V 46 h 21.478 c -0.085 7.079 -1.064 13.743 -2.737 19.586 H 46 z M 69.477 46 h 18.497 c -0.163 7.079 -2.034 13.743 -5.234 19.586 H 66.767 C 68.425 59.691 69.393 53.044 69.477 46 z M 69.477 44 c -0.084 -7.044 -1.052 -13.691 -2.71 -19.586 h 15.974 c 3.2 5.842 5.071 12.506 5.233 19.586 H 69.477 z M 81.57 22.414 h -15.4 c -2.826 -8.908 -7.265 -15.881 -12.58 -19.551 C 65.38 5.263 75.428 12.506 81.57 22.414 z M 36.411 2.863 c -5.315 3.67 -9.755 10.643 -12.581 19.551 H 8.43 C 14.572 12.506 24.619 5.263 36.411 2.863 z M 8.43 67.586 h 15.4 c 2.826 8.908 7.265 15.881 12.581 19.551 C 24.619 84.737 14.572 77.494 8.43 67.586 z M 53.589 87.137 c 5.315 -3.67 9.754 -10.643 12.58 -19.551 h 15.4 C 75.428 77.494 65.38 84.737 53.589 87.137 z"/>
</svg>
